<svg xmlns="http://www.w3.org/2000/svg" viewBox="0 0 60 60"><svg fill="#6AA84F" viewBox="0 0 100 100"><path d="M0 0h100v100H0z"/></svg><svg width="45" height="45" x="7.5" y="7.5" fill="#fff" viewBox="0 0 67.74 66.6"><path d="m4.68 1.148.65-.57q9.65 1.15 12.24 5.9 1.58 2.74-.15 4.83-1.72 2.08-4.53.72-.36-.15-.65-.36-.79-2.6-2.95-5.48-2.16-2.88-4.61-5.04ZM0 17.348l.65-.5q9.14 1.3 11.3 5.83 1.3 2.67-.5 4.47-1.95 1.94-4.68.36-.22-.08-.36-.22-1.08-4.9-6.41-9.94Zm19.51-5.04 1.23.29q-7.42 26.57-7.92 29.02-.94 3.89-.94 6.62 0 1.3 1.3 5.26 1.29 3.96 1.15 7.49-.15 2.59-1.51 4.1-1.37 1.51-3.6 1.51-2.6 0-3.24-3.67.93-5.54.72-9.79-.22-4.32-1.44-5.11-1.16-.87-3.68-1.08v-1.52h3.17q.87 0 1.15-.21.36-.22.8-1.3 1.36-2.59 12.81-31.61Zm38.52 3.46H43.34q-.14 5.83-.57 10.22-.43 4.4-1.44 9.44-.94 4.96-2.74 9-1.8 3.96-4.53 7.99-2.74 4.03-6.84 7.56-4.11 3.45-9.51 6.41l-.86-1.16q6.12-4.68 10.15-10.22 4.03-5.54 6.05-12.1 2.01-6.55 2.73-12.67.8-6.12.94-14.47h-9q1.15 7.56-2.45 10.08-2.09 1.44-4.03.14-2.09-1.36-.86-4.17.28-.72.79-1.37 3.67-2.95 4.1-10.66h1.01q.65 2.09 1.08 3.89h9.43V-.002l6.77.94q0 3.81-.07 7.41 0 3.53-.07 5.33h14.11q.57-3.74 5.76-3.74 4.97 2.52 4.39 6.26-.65.79-2.74.87-3.67 4.46-7.92 8.56l-.86-.43q.72-3.45 1.87-9.43Zm6.27 30.38h.86l.22 11.45q2.23.94 2.23 2.81 0 2.16-2.59 3.1-2.6 1-9.22 1h-5.4q-4.25 0-5.62-1.29-1.36-1.23-1.36-4.75v-33.27l6.62.87v30.67q0 .86.36 1.15.43.29 1.73.29h4.25q3.16 0 3.81-.07.94-.08 1.37-1.01.79-1.51 2.74-10.95Z"/></svg></svg>