<svg xmlns="http://www.w3.org/2000/svg" viewBox="0 0 60 60" x="0" y="0">
  <svg fill="#6AA84F" viewBox="0 0 100 100">
    <rect width="100" height="100">
    </rect>
  </svg>
  <svg fill="#ffffff" viewBox="0 0 67.73984375 66.60000000000001" width="45" height="45" x="7.5" y="7.5">
    <path transform="translate(-2.16 60.40800000000001)"
      d="M6.84-59.26L6.84-59.26L7.49-59.83Q17.14-58.68 19.73-53.93L19.73-53.93Q21.31-51.19 19.58-49.10Q17.86-47.02 15.05-48.38L15.05-48.38Q14.69-48.53 14.40-48.74L14.40-48.74Q13.61-51.34 11.45-54.22Q9.29-57.10 6.84-59.26ZM2.16-43.06L2.16-43.06L2.81-43.56Q11.95-42.26 14.11-37.73L14.11-37.73Q15.41-35.06 13.61-33.26L13.61-33.26Q11.66-31.32 8.93-32.90L8.93-32.90Q8.71-32.98 8.57-33.12L8.57-33.12Q7.49-38.02 2.16-43.06ZM21.67-48.10L21.67-48.10L22.90-47.81Q15.48-21.24 14.98-18.79L14.98-18.79Q14.04-14.90 14.04-12.17L14.04-12.17Q14.04-10.87 15.34-6.91Q16.63-2.95 16.49 0.58L16.49 0.58Q16.34 3.17 14.98 4.68Q13.61 6.19 11.38 6.19L11.38 6.19Q8.78 6.19 8.14 2.52L8.14 2.52Q9.07-3.02 8.86-7.27L8.86-7.27Q8.64-11.59 7.42-12.38L7.42-12.38Q6.26-13.25 3.74-13.46L3.74-13.46L3.74-14.98L6.91-14.98Q7.78-14.98 8.06-15.19L8.06-15.19Q8.42-15.41 8.86-16.49L8.86-16.49Q10.22-19.08 21.67-48.10ZM60.19-44.64L60.19-44.64L45.50-44.64Q45.36-38.81 44.93-34.42Q44.50-30.02 43.49-24.98L43.49-24.98Q42.55-20.02 40.75-15.98L40.75-15.98Q38.95-12.02 36.22-7.99Q33.48-3.96 29.38-0.43L29.38-0.43Q25.27 3.02 19.87 5.98L19.87 5.98L19.01 4.82Q25.13 0.14 29.16-5.40Q33.19-10.94 35.21-17.50Q37.22-24.05 37.94-30.17L37.94-30.17Q38.74-36.29 38.88-44.64L38.88-44.64L29.88-44.64Q31.03-37.08 27.43-34.56L27.43-34.56Q25.34-33.12 23.40-34.42L23.40-34.42Q21.31-35.78 22.54-38.59L22.54-38.59Q22.82-39.31 23.33-39.96L23.33-39.96Q27.00-42.91 27.43-50.62L27.43-50.62L28.44-50.62Q29.09-48.53 29.52-46.73L29.52-46.73L38.95-46.73L38.95-60.41L45.72-59.47Q45.72-55.66 45.65-52.06L45.65-52.06Q45.65-48.53 45.58-46.73L45.58-46.73L59.69-46.73Q60.26-50.47 65.45-50.47L65.45-50.47Q70.42-47.95 69.84-44.21L69.84-44.21Q69.19-43.42 67.10-43.34L67.10-43.34Q63.43-38.88 59.18-34.78L59.18-34.78L58.32-35.21Q59.04-38.66 60.19-44.64ZM66.46-14.26L67.32-14.26L67.54-2.81Q69.77-1.87 69.77 0L69.77 0Q69.77 2.16 67.18 3.10L67.18 3.10Q64.58 4.10 57.96 4.10L57.96 4.10L52.56 4.10Q48.31 4.10 46.94 2.81L46.94 2.81Q45.58 1.58 45.58-1.94L45.58-1.94L45.58-35.21L52.20-34.34L52.20-3.67Q52.20-2.81 52.56-2.52L52.56-2.52Q52.99-2.23 54.29-2.23L54.29-2.23L58.54-2.23Q61.70-2.23 62.35-2.30L62.35-2.30Q63.29-2.38 63.72-3.31L63.72-3.31Q64.51-4.82 66.46-14.26L66.46-14.26Z">
    </path>
  </svg>
</svg>