<svg xmlns="http://www.w3.org/2000/svg" viewBox="0 0 1055 1024"><path d="M760.952 332.213h165.739a40.171 40.171 0 0 1 38.668 41.643 40.14 40.14 0 0 1-38.668 38.764h-208.5c-56.132 0-93.552-67.038-93.552-115.237V82.933a41.163 41.163 0 0 1 40.139-40.171c21.909.544 39.532 18.23 40.075 40.171V275.89L969.517 10.555a39.66 39.66 0 0 1 56.131 2.302 39.915 39.915 0 0 1 0 53.989L760.984 332.245zM291.434 691.548H125.695a41.163 41.163 0 0 1-40.075-40.171 41.163 41.163 0 0 1 40.075-40.236h221.838c48.103 0 80.183 40.172 80.183 101.868v201.017a40.14 40.14 0 1 1-80.183-.032V747.807l-264.632 265.4a45.609 45.609 0 0 1-58.817 0 38.988 38.988 0 0 1-1.344-54.948l1.344-1.344 267.318-265.399z"/></svg>