<svg xmlns="http://www.w3.org/2000/svg" viewBox="0 0 1024 1024"><path d="M322.56 645.12c30.72 0 56.32 25.6 56.32 56.32v240.64c0 30.72-25.6 56.32-56.32 56.32s-56.32-25.6-56.32-56.32V752.64H81.92c-30.72 0-56.32-25.6-56.32-56.32S51.2 640 81.92 640h240.64zm619.52 0c30.72 0 56.32 25.6 56.32 56.32s-25.6 56.32-56.32 56.32H752.64V947.2c0 30.72-25.6 56.32-56.32 56.32S640 977.92 640 947.2V706.56c0-30.72 25.6-56.32 56.32-56.32h245.76zM701.44 25.6c30.72 0 56.32 25.6 56.32 56.32v189.44H947.2c30.72 0 56.32 25.6 56.32 56.32s-30.72 51.2-61.44 51.2H701.44c-30.72 0-56.32-25.6-56.32-56.32V81.92c0-30.72 25.6-56.32 56.32-56.32zm-378.88 0c30.72 0 56.32 25.6 56.32 56.32v240.64c0 30.72-25.6 56.32-56.32 56.32H81.92c-30.72 0-56.32-25.6-56.32-56.32s25.6-56.32 56.32-56.32h189.44V81.92c-5.12-30.72 20.48-56.32 51.2-56.32z"/></svg>