<svg xmlns="http://www.w3.org/2000/svg" viewBox="0 0 1024 1024"><path d="M904.533 119.467h-199.11c-34.134 0-56.89-28.445-56.89-56.89S676.978 5.69 705.423 5.69H967.11c34.133 0 56.889 28.444 56.889 56.889v261.689c0 34.133-28.444 56.889-56.889 56.889-34.133 0-56.889-28.445-56.889-56.89v-204.8zM119.467 904.533h199.11c34.134 0 56.89 28.445 56.89 56.89 0 34.133-28.445 56.888-56.89 56.888H56.89c-34.134 0-56.89-28.444-56.89-56.889V699.733c0-34.133 28.444-56.889 56.889-56.889s56.889 28.445 56.889 56.89v204.8zm0-785.066v199.11c0 34.134-28.445 56.89-56.89 56.89S5.69 347.022 5.69 318.577V56.89C5.689 22.756 34.133 0 62.578 0h261.689c34.133 0 56.889 28.444 56.889 56.889s-28.445 56.889-56.89 56.889h-204.8zm785.066 585.955c0-34.133 28.445-56.889 56.89-56.889 34.133 0 56.888 28.445 56.888 56.89V967.11c0 34.133-28.444 56.889-56.889 56.889H699.733c-34.133 0-56.889-28.444-56.889-56.889 0-34.133 28.445-56.889 56.89-56.889h199.11v-204.8z"/></svg>