<svg xmlns="http://www.w3.org/2000/svg" viewBox="0 0 1024 1024"><path d="M345.6 98.133c21.333 0 42.667 17.067 42.667 38.4C405.333 243.2 409.6 366.933 409.6 512c0 145.067-8.533 268.8-25.6 375.467-4.267 21.333-21.333 38.4-42.667 38.4H209.067c-21.334 0-42.667-17.067-42.667-38.4C149.333 780.8 140.8 652.8 140.8 507.733c0-145.066 8.533-268.8 25.6-375.466 4.267-21.334 21.333-38.4 42.667-38.4H345.6zm469.333 0c21.334 0 42.667 17.067 42.667 38.4C874.667 243.2 883.2 366.933 883.2 512c0 145.067-8.533 268.8-25.6 375.467-4.267 21.333-21.333 38.4-42.667 38.4H682.667c-21.334 0-42.667-17.067-42.667-38.4C622.933 780.8 614.4 652.8 614.4 507.733c0-145.066 8.533-268.8 25.6-375.466 4.267-21.334 21.333-38.4 42.667-38.4h132.266z"/></svg>