<svg xmlns="http://www.w3.org/2000/svg" viewBox="0 0 1024 1024"><path d="M896 128a42.667 42.667 0 0 1 42.667 42.667v298.666h-85.334v-256H170.667v597.334h256V896H128a42.667 42.667 0 0 1-42.667-42.667V170.667A42.667 42.667 0 0 1 128 128h768zm0 426.667a42.667 42.667 0 0 1 42.667 42.666v256A42.667 42.667 0 0 1 896 896H554.667A42.667 42.667 0 0 1 512 853.333v-256a42.667 42.667 0 0 1 42.667-42.666H896zM853.333 640h-256v170.667h256V640zM286.165 268.501l96 96 87.168-87.168V512H234.667l87.168-87.168-96-96 60.33-60.33z"/></svg>