<svg xmlns="http://www.w3.org/2000/svg" viewBox="0 0 1024 1024"><path d="M556.032 320v94.72c0 13.824-11.776 25.088-26.112 25.088-5.632 0-11.776-2.56-17.408-5.632-29.184-19.456-55.808-41.472-81.92-64-32.256-27.648-64.512-60.928-93.696-97.28-8.704-8.192-8.704-22.016 0-33.28 29.184-33.28 58.368-66.56 93.696-97.28 26.112-25.088 52.736-44.544 81.92-64 11.776-8.192 29.184-5.632 37.888 5.632 3.072 5.632 5.632 11.264 5.632 16.896v108.544C737.28 231.424 878.08 387.584 878.08 573.952c0 203.264-163.84 367.104-365.568 367.104s-365.568-163.84-365.568-367.104c0-30.72 26.112-55.808 58.368-55.808s58.368 25.088 58.368 55.808c0 141.824 111.104 256 248.832 256s248.832-114.176 248.832-256C760.832 448 672.768 342.016 556.032 320z"/></svg>