<svg viewBox="0 0 1024 1024"><path d="M759.467 716.8c-12.8-12.8-12.8-34.133 0-46.933 89.6-89.6 89.6-226.134 0-315.734-12.8-12.8-12.8-34.133 0-46.933s34.133-12.8 46.933 0c55.467 55.467 89.6 123.733 89.6 200.533 0 72.534-34.133 149.334-89.6 200.534-4.267 4.266-12.8 8.533-25.6 8.533-8.533 8.533-17.067 4.267-21.333 0zm-98.134-51.2c-8.533 0-17.066-4.267-25.6-8.533-12.8-12.8-12.8-34.134 0-46.934 55.467-55.466 55.467-140.8 0-196.266-12.8-12.8-12.8-34.134 0-46.934 12.8-12.8 34.134-12.8 46.934 0 85.333 76.8 85.333 204.8 0 281.6-4.267 12.8-12.8 17.067-21.334 17.067zM486.4 187.733c42.667-34.133 76.8-12.8 76.8 38.4V806.4c0 51.2-34.133 64-72.533 34.133L320 699.733h-98.133c-51.2 0-93.867-42.666-93.867-93.866v-192c0-51.2 42.667-93.867 93.867-93.867h89.6L486.4 187.733z"/></svg>