<svg xmlns="http://www.w3.org/2000/svg" viewBox="0 0 1024 1024"><path d="M541.867 221.867v580.266c0 51.2-34.134 64-72.534 34.134l-170.666-140.8h-98.134c-51.2 0-93.866-42.667-93.866-93.867v-192c0-51.2 42.666-93.867 93.866-93.867h89.6L460.8 179.2c46.933-25.6 81.067-8.533 81.067 42.667zm128 157.866 4.266 4.267 81.067 81.067L836.267 384c12.8-12.8 34.133-12.8 46.933 0 12.8 12.8 12.8 34.133 0 46.933L802.133 512l81.067 81.067c12.8 12.8 12.8 29.866 4.267 42.666L883.2 640c-12.8 12.8-29.867 12.8-42.667 4.267L836.267 640 755.2 558.933 674.133 640c-12.8 12.8-34.133 12.8-46.933 0-12.8-12.8-12.8-34.133 0-46.933L708.267 512 627.2 430.933c-12.8-12.8-12.8-29.866-4.267-42.666L627.2 384c8.533-12.8 25.6-17.067 42.667-4.267z"/></svg>